<svg width="500" height="300" xmlns="http://www.w3.org/2000/svg">
 <!-- Created with Method Draw - http://github.com/duopixel/Method-Draw/ -->
 <g>
  <title>background</title>
 </g>
 <g>
  <title>Layer 1</title>
  <ellipse stroke="#000000" transform="rotate(10.400800704956055 232.97685241699227,208.07136535644537) " ry="46.170975" rx="227.405763" id="svg_8" cy="208.071363" cx="232.976861" stroke-opacity="null" stroke-width="0" fill="#666666"/>
  <text stroke-width="8" stroke="#0d3e70" transform="matrix(1.5599656565599707,0,0,1.6409298904776253,-63.74296651760022,-54.99475623132037) " font-weight="bold" xml:space="preserve" text-anchor="start" font-family="Helvetica, Arial, sans-serif" font-size="120" id="svg_1" y="161.016378" x="70.525302" fill="#5b7bb2">DM</text>
  <path id="svg_28" d="m380.203869,14.285683c0,0 -368.162642,150.203827 -368.162642,150.203827c0,0 33.877494,31.428518 33.877494,31.428518c0,0 55.101947,28.163218 55.101947,28.163218c0,0 294.285216,44.571353 293.877053,44.16319" opacity="0.5" fill-opacity="null" stroke-opacity="null" stroke-width="0" stroke="#000000" fill="#7f7f7f"/>
  <ellipse stroke="#000000" transform="rotate(-13 402.3088378906249,143.467803955078) " ry="130.829477" rx="86.557796" id="svg_19" cy="143.467806" cx="402.308836" fill="#aa8239"/>
  <path stroke="#000000" transform="rotate(-13 414.8453979492187,136.4424743652345) " id="svg_17" d="m414.845377,9.000154c-41.756899,0 -75.606827,57.056458 -75.606827,127.442286c0,70.384364 33.849928,127.442333 75.606827,127.442333c41.75738,0 75.606827,-57.057969 75.606827,-127.442333c0,-70.385828 -33.849447,-127.442286 -75.606827,-127.442286zm6.528776,196.53715l0,17.950573l-10.185612,0l0,-17.748326c-16.71437,-3.858339 -24.038863,-27.007071 -24.038863,-27.007071l10.41474,-14.669201c0,0 6.63793,19.492623 18.654713,19.492623c6.637397,0 11.673345,-5.988933 11.673345,-16.214468c0,-23.927965 -38.230029,-21.026407 -38.230029,-65.403745c0,-19.292009 9.041073,-33.19018 21.520675,-36.468344l0,-17.948781l10.186032,0l0,17.938854c8.697809,1.92999 18.99795,9.646741 18.99795,26.244468l0,12.732361l-13.505031,0l0,-6.172861c0,-6.365529 -4.811768,-10.610334 -10.190516,-10.610334c-6.866612,0 -11.902577,5.786911 -11.902577,13.889876c0,24.498549 38.230011,18.519328 38.230011,65.019173c0.005463,19.106164 -8.463568,35.697116 -21.624838,38.975214l0,-0.000009z" stroke-width="0" fill="#ffe1aa"/>
  <ellipse stroke="#000000" transform="rotate(-23.958349227905273 452.3460083007813,105.02985382080084) " ry="25.636118" rx="9.270975" id="svg_6" cy="105.02985" cx="452.345712" stroke-width="0" fill="#ffffff"/>
  <ellipse stroke="#000000" transform="rotate(-27.570255279541016 461.92962646484375,146.1099700927735) " ry="10.285052" rx="5.650694" id="svg_7" cy="146.109999" cx="461.929355" stroke-width="0" fill="#ffffff"/>
 </g>
</svg>