<svg width="500" height="300" xmlns="http://www.w3.org/2000/svg">
 <!-- Created with Method Draw - http://github.com/duopixel/Method-Draw/ -->
 <g>
  <title>background</title>
 </g>
 <g>
  <title>Layer 1</title>
  <ellipse stroke="#000000" transform="rotate(10.400800704956055 223.54473876953085,240.94494628906247) " ry="24.440123" rx="221.008711" id="svg_8" cy="240.944959" cx="223.544713" stroke-opacity="null" stroke-width="0" fill="#b2b2b2"/>
  <ellipse stroke="#05488c" transform="rotate(0.747737467288971 179.79296874999704,258.07162475585955) " ry="25.734702" rx="171.92966" id="svg_24" cy="258.071637" cx="179.792969" fill="#4d648d"/>
  <path id="svg_25" d="m302.363049,278.281655c0,0 -178.316173,-35.397752 -178.316173,-35.397752c0,0 13.716629,-6.637078 13.491672,-6.902568c0.224957,0.265489 2.879788,-3.274286 2.654831,-3.539775c0.224957,0.265489 71.02046,1.150433 71.02046,1.150433c0,0 48.671908,3.097303 48.671908,3.097303c0,0 44.247189,5.752135 44.022228,5.486645c0.224961,0.26549 24.560916,4.247737 24.560916,4.247737c0,0 19.468763,11.946741 19.468763,11.946741c0,0 -0.442472,6.637078 -0.667434,6.371588c0.224963,0.26549 -3.314813,2.47785 -3.314813,2.47785c0,0 -5.309663,2.654831 -5.534625,2.389341c0.224962,0.26549 -36.057733,8.672456 -36.057733,8.672456z" stroke-opacity="null" stroke-width="0" stroke="#000000" fill="#3c5172"/>
  <text stroke="#0d3e70" transform="matrix(1.4507399650931345,0,0,1.6691033480390403,-35.751597999966975,-76.33161550346179) " font-weight="bold" xml:space="preserve" text-anchor="start" font-family="Helvetica, Arial, sans-serif" font-size="120" id="svg_1" y="192.777984" x="54.224255" fill="#277553">DM</text>
  <ellipse stroke="#000000" transform="rotate(-13 382.68173217773415,164.9641265869142) " ry="130.829477" rx="86.557796" id="svg_19" cy="164.964121" cx="382.681766" stroke-width="0" fill="#aa8239"/>
  <path stroke="#000000" transform="rotate(-13 383.24435424804653,162.75004577636722) " id="svg_17" d="m383.244358,49.353376c-41.756899,0 -75.606827,50.768162 -75.606827,113.396639c0,62.627175 33.849928,113.396681 75.606827,113.396681c41.75738,0 75.606827,-50.769507 75.606827,-113.396681c0,-62.628477 -33.849447,-113.396639 -75.606827,-113.396639zm6.528776,174.876432l0,15.972208l-10.185612,0l0,-15.792251c-16.714371,-3.433104 -24.038863,-24.030573 -24.038863,-24.030573l10.41474,-13.052481c0,0 6.63793,17.344305 18.654713,17.344305c6.637397,0 11.673344,-5.328881 11.673344,-14.427443c0,-21.290819 -38.230028,-18.709047 -38.230028,-58.195478c0,-17.165802 9.041073,-29.53223 21.520675,-32.449101l0,-15.970613l10.186031,0l0,15.96178c8.697809,1.717282 18.99795,8.583556 18.99795,23.352017l0,11.329104l-13.505031,0l0,-5.49254c0,-5.663972 -4.811767,-9.440949 -10.190515,-9.440949c-6.866612,0 -11.902577,5.149125 -11.902577,12.359048c0,21.798519 38.230011,16.478279 38.230011,57.853291c0.005463,17.00044 -8.463568,31.762873 -21.624837,34.679685l0,-0.000008z" stroke-width="0" fill="#ffe1aa"/>
  <ellipse stroke="#000000" transform="rotate(-23.958349227905273 418.69927978515625,104.095230102539) " ry="25.636118" rx="9.270975" id="svg_6" cy="104.095227" cx="418.699306" stroke-width="0" fill="#ffffff"/>
  <ellipse stroke="#000000" transform="rotate(-27.570255279541016 433.89056396484375,142.37150573730466) " ry="10.285052" rx="5.650694" id="svg_7" cy="142.371509" cx="433.890683" stroke-width="0" fill="#ffffff"/>
  <text stroke="null" transform="matrix(1.3440320277581643,0,0,1.7384984399998027,30.96200335258989,-253.66310033310157) " font-weight="bold" xml:space="preserve" text-anchor="start" font-family="Oswald, sans-serif" font-size="12" id="svg_22" y="298.452562" x="28.019032" stroke-width="0.3" fill="#20365b">DUDEZMOBI STAKING POOL</text>
 </g>
</svg>