<svg width="500" height="300" xmlns="http://www.w3.org/2000/svg">
 <!-- Created with Method Draw - http://github.com/duopixel/Method-Draw/ -->
 <g>
  <title>background</title>
 </g>
 <g>
  <title>Layer 1</title>
  <ellipse stroke="#000000" transform="rotate(10.400800704956055 223.54473876953085,240.94494628906247) " ry="24.440123" rx="221.008711" id="svg_8" cy="240.944959" cx="223.544713" stroke-opacity="null" stroke-width="0" fill="#b2b2b2"/>
  <ellipse stroke="#a82d2d" transform="rotate(0.747737467288971 179.79296875,258.0716304779053)" ry="25.734702" rx="171.92966" id="svg_24" cy="258.071637" cx="179.792969" fill="#d4726a"/>
  <path id="svg_25" d="m302.363049,278.281655c0,0 -178.316173,-35.397752 -178.316173,-35.397752c0,0 13.716629,-6.637078 13.491672,-6.902568c0.224957,0.265489 2.879788,-3.274286 2.654831,-3.539775c0.224957,0.265489 71.02046,1.150433 71.02046,1.150433c0,0 48.671908,3.097303 48.671908,3.097303c0,0 44.247189,5.752135 44.022228,5.486645c0.224961,0.26549 24.560916,4.247737 24.560916,4.247737c0,0 19.468763,11.946741 19.468763,11.946741c0,0 -0.442472,6.637078 -0.667434,6.371588c0.224963,0.26549 -3.314813,2.47785 -3.314813,2.47785c0,0 -5.309663,2.654831 -5.534625,2.389341c0.224962,0.26549 -36.057733,8.672456 -36.057733,8.672456z" stroke-opacity="null" stroke-width="0" stroke="#000000" fill="#ad5c56"/>
  <text stroke-opacity="0" stroke="#000000" transform="matrix(1.4507399650931345,0,0,1.6691033480390403,-35.751597999966975,-76.33161550346179) " font-weight="bold" xml:space="preserve" text-anchor="start" font-family="Helvetica, Arial, sans-serif" font-size="120" id="svg_1" y="192.777984" x="54.224255" stroke-width="2" fill="#29506d">DM</text>
  <ellipse stroke="#000000" transform="rotate(-13 392.74511718749983,151.5687561035157) " ry="141.617526" rx="99.377425" id="svg_19" cy="151.568775" cx="392.746047" stroke-width="0" fill="#806c15"/>
  <path stroke="#000000" transform="rotate(-13 391.6040039062497,150.53898620605477) " id="svg_17" d="m391.604926,27.124984c-47.77309,0 -86.5,55.252971 -86.5,123.413986c0,68.159597 38.72691,123.414032 86.5,123.414032c47.77364,0 86.5,-55.254434 86.5,-123.414032c0,-68.161015 -38.72636,-123.413986 -86.5,-123.413986zm7.46942,190.324843l0,17.383177l-11.65312,0l0,-17.187323c-19.12252,-3.736381 -27.5023,-26.15341 -27.5023,-26.15341l11.91526,-14.205524c0,0 7.5943,18.876484 21.34242,18.876484c7.59369,0 13.3552,-5.799629 13.3552,-15.701949c0,-23.171629 -43.73808,-20.361786 -43.73808,-63.336409c0,-18.682212 10.34368,-32.141078 24.6213,-35.315622l0,-17.381441l11.6536,0l0,17.371827c9.95096,1.868985 21.73511,9.341819 21.73511,25.414911l0,12.329906l-15.45079,0l0,-5.977745c0,-6.164321 -5.50503,-10.274953 -11.65873,-10.274953c-7.85593,0 -13.61746,5.603994 -13.61746,13.450834c0,23.724179 43.73806,17.933954 43.73806,62.963993c0.00625,18.502242 -9.68297,34.568773 -24.74047,37.743254l0,-0.000009z" stroke-width="0" fill="#ffefaa"/>
  <ellipse stroke="#000000" transform="rotate(-28.003812789916992 434.586944580078,104.09521484374994) " ry="25.636118" rx="9.270975" id="svg_6" cy="104.095227" cx="434.587886" stroke-width="0" fill="#ffffff"/>
  <ellipse stroke="#000000" transform="rotate(-27.570255279541016 445.10522460937506,142.37149047851568) " ry="10.285052" rx="5.650694" id="svg_7" cy="142.371509" cx="445.106152" stroke-width="0" fill="#ffffff"/>
  <text stroke="null" transform="matrix(1.3440320277581643,0,0,1.7384984399998027,30.96200335258989,-253.66310033310157) " font-weight="bold" xml:space="preserve" text-anchor="start" font-family="Oswald, sans-serif" font-size="12" id="svg_22" y="298.452562" x="28.019032" stroke-width="0.3" fill="#801d15">DUDEZMOBI STAKING POOL</text>
 </g>
</svg>