<svg width="410" height="400" xmlns="http://www.w3.org/2000/svg">
 <!-- Created with Method Draw - http://github.com/duopixel/Method-Draw/ -->

 <g>
  <title>background</title>
  <rect fill="none" id="canvas_background" height="402" width="412" y="-1" x="-1"/>
  <g display="none" overflow="visible" y="0" x="0" height="100%" width="100%" id="canvasGrid">
   <rect fill="url(#gridpattern)" stroke-width="0" y="0" x="0" height="100%" width="100%"/>
  </g>
 </g>
 <g>
  <title>Layer 1</title>
  <ellipse ry="188" rx="188" id="svg_1" cy="199.999997" cx="196" stroke-width="10" stroke="#000" fill="#fff"/>
  <text stroke="#000" xml:space="preserve" text-anchor="start" font-family="'Trebuchet MS', Gadget, sans-serif" font-size="200" id="svg_2" y="267.377025" x="22.991675" fill-opacity="null" stroke-opacity="null" stroke-width="0" fill="#000000">DM</text>
  <path transform="rotate(6.726463794708252 333.4102172851561,163.47250366210918) " stroke="#000" id="svg_3" d="m333.410218,62.409595c-40.835532,0 -73.938569,45.246283 -73.938569,101.062889c0,55.815433 33.103037,101.062921 73.938569,101.062921c40.836005,0 73.938569,-45.247488 73.938569,-101.062921c0,-55.816606 -33.102563,-101.062889 -73.938569,-101.062889zm6.38472,155.855735l0,14.234969l-9.960868,0l0,-14.074586c-16.34557,-3.059692 -23.508448,-21.416847 -23.508448,-21.416847l10.184943,-11.632809c0,0 6.491463,15.457822 18.2431,15.457822c6.490943,0 11.415766,-4.749277 11.415766,-12.858217c0,-18.975094 -37.386481,-16.674134 -37.386481,-51.865766c0,-15.298733 8.84158,-26.320111 21.045821,-28.919724l0,-14.233546l9.961282,0l0,14.225671c8.505887,1.530505 18.578763,7.649953 18.578763,20.812102l0,10.096879l-13.207049,0l0,-4.895139c0,-5.047922 -4.705598,-8.414085 -9.965659,-8.414085c-6.715107,0 -11.639954,4.589072 -11.639954,11.014797c0,19.427565 37.386469,14.685992 37.386469,51.56079c0.005341,15.151359 -8.276814,28.30814 -21.147685,30.907696l0,-0.000008z" fill-opacity="null" stroke-opacity="null" stroke-width="8" fill="#fff"/>
 </g>
</svg>